<svg width="50" height="50" viewBox="0 0 50 50" fill="none" xmlns="http://www.w3.org/2000/svg">
<g clip-path="url(#clip0)">
<rect x="-1.78161" y="25.0007" width="37.8749" height="37.8749" rx="8.22368" transform="rotate(-45 -1.78161 25.0007)" fill="#010048" stroke="white" stroke-width="0.657895"/>
<path d="M44.7375 18.4218L30.5825 4.26676C27.4994 1.18367 22.5008 1.18368 19.4177 4.26676L5.2627 18.4218H44.7375Z" fill="#693CFF"/>
<ellipse opacity="0.7" cx="24.999" cy="32.8954" rx="10.5263" ry="3.28947" fill="#693CFF"/>
<ellipse cx="24.999" cy="30.2638" rx="10.5263" ry="3.28947" fill="#693CFF"/>
<g clip-path="url(#clip1)">
<path d="M24.9971 25.4934C26.6495 25.4934 27.9646 24.1772 27.9646 22.5535C27.9646 20.9297 26.625 19.6135 24.9971 19.6135C23.3446 19.6135 22.0296 20.9297 22.0296 22.5535C22.0036 24.1761 23.3449 25.4934 24.9971 25.4934ZM26.4362 26.398H23.5637C21.3042 26.398 19.4736 28.0857 19.4736 30.1663C19.4736 30.5847 19.8392 30.9211 20.2911 30.9211H29.7088C30.1607 30.9211 30.5263 30.5847 30.5263 30.1663C30.5263 28.0857 28.6957 26.398 26.4362 26.398ZM30.5263 20.9704C31.7979 20.9704 32.8289 19.9578 32.8289 18.7089C32.8289 17.46 31.7985 16.4474 30.5263 16.4474C29.2546 16.4474 28.2236 17.46 28.2236 18.7089C28.2236 19.9578 29.2541 20.9704 30.5263 20.9704ZM31.6747 21.875H29.8948C29.5263 21.875 29.1786 21.9609 28.8626 22.108C28.8799 22.2566 28.9087 22.4008 28.9087 22.5535C28.9087 23.5064 28.5408 24.3686 27.9542 25.0411H33.7022C33.9831 25.0411 34.2105 24.8037 34.2105 24.5125C34.2105 23.0567 33.0764 21.875 31.6747 21.875Z" fill="white"/>
</g>
</g>
<defs>
<clipPath id="clip0">
<rect width="50" height="50" fill="white"/>
</clipPath>
<clipPath id="clip1">
<rect width="18.4211" height="14.4737" fill="white" transform="translate(15.7891 16.4474)"/>
</clipPath>
</defs>
</svg>
