<svg width="66" height="50" viewBox="0 0 66 50" fill="none" xmlns="http://www.w3.org/2000/svg">
<path d="M63.1298 43.6497C64.2343 43.6497 65.1298 42.7542 65.1298 41.6497V40.3021C65.1298 39.1975 64.2343 38.3021 63.1298 38.3021H25.919C25.0725 38.3021 24.3385 37.7554 23.9193 37.0199C22.5366 34.5942 19.9245 32.9545 16.935 32.9545C13.9456 32.9545 11.3335 34.5942 9.95079 37.0199C9.53159 37.7554 8.79754 38.3021 7.95101 38.3021H2.87012C1.76555 38.3021 0.870117 39.1975 0.870117 40.3021V41.6497C0.870117 42.7542 1.76555 43.6497 2.87012 43.6497H7.95101C8.79754 43.6497 9.53159 44.1964 9.95079 44.9318C11.3335 47.3576 13.9456 48.9973 16.935 48.9973C19.9245 48.9973 22.5365 47.3575 23.9193 44.9317C24.3384 44.1963 25.0725 43.6497 25.919 43.6497H63.1298ZM16.935 43.6497C15.4587 43.6497 14.2575 42.4504 14.2575 40.9759C14.2575 39.5014 15.4587 38.3021 16.935 38.3021C18.4114 38.3021 19.6125 39.5014 19.6125 40.9759C19.6125 42.4504 18.4114 43.6497 16.935 43.6497Z" fill="#010048"/>
<path d="M49.0648 32.9545C52.0543 32.9545 54.6663 31.3148 56.0491 28.889C56.4683 28.1536 57.2023 27.6069 58.0488 27.6069H63.1298C64.2343 27.6069 65.1298 26.7115 65.1298 25.6069V24.2593C65.1298 23.1548 64.2343 22.2593 63.1298 22.2593H58.0489C57.2023 22.2593 56.4683 21.7126 56.0491 20.9772C54.6664 18.5514 52.0543 16.9117 49.0648 16.9117C46.0754 16.9117 43.4633 18.5514 42.0806 20.9772C41.6614 21.7126 40.9274 22.2593 40.0808 22.2593H2.87012C1.76555 22.2593 0.870117 23.1548 0.870117 24.2593V25.6069C0.870117 26.7115 1.76555 27.6069 2.87012 27.6069H40.0808C40.9273 27.6069 41.6614 28.1536 42.0806 28.8891C43.4633 31.3148 46.0754 32.9545 49.0648 32.9545ZM49.0648 22.2593C50.5412 22.2593 51.7423 23.4588 51.7423 24.9331C51.7423 26.4075 50.5412 27.6069 49.0648 27.6069C47.5885 27.6069 46.3874 26.4075 46.3874 24.9331C46.3874 23.4588 47.5885 22.2593 49.0648 22.2593Z" fill="#010048"/>
<path d="M16.935 16.9117C19.9245 16.9117 22.5365 15.272 23.9193 12.8461C24.3384 12.1107 25.0725 11.5641 25.919 11.5641H63.1298C64.2343 11.5641 65.1298 10.6687 65.1298 9.56409V8.21649C65.1298 7.11192 64.2343 6.21649 63.1298 6.21649H25.919C25.0725 6.21649 24.3385 5.6698 23.9193 4.93436C22.5366 2.50858 19.9245 0.868896 16.935 0.868896C13.9456 0.868896 11.3335 2.50858 9.95079 4.93436C9.53159 5.6698 8.79754 6.21649 7.95101 6.21649H2.87012C1.76555 6.21649 0.870117 7.11192 0.870117 8.21649V9.56409C0.870117 10.6687 1.76555 11.5641 2.87012 11.5641H7.95101C8.79754 11.5641 9.53159 12.1108 9.95079 12.8462C11.3335 15.272 13.9456 16.9117 16.935 16.9117ZM16.935 6.21649C18.4114 6.21649 19.6125 7.41596 19.6125 8.89029C19.6125 10.3646 18.4114 11.5641 16.935 11.5641C15.4587 11.5641 14.2575 10.3646 14.2575 8.89029C14.2575 7.41596 15.4587 6.21649 16.935 6.21649Z" fill="#010048"/>
</svg>
