<svg width="50" height="50" viewBox="0 0 50 50" fill="none" xmlns="http://www.w3.org/2000/svg">
<g clip-path="url(#clip0)">
<rect x="-1.78161" y="25.0007" width="37.8749" height="37.8749" rx="8.22368" transform="rotate(-45 -1.78161 25.0007)" fill="#010048" stroke="white" stroke-width="0.657895"/>
<path d="M44.7375 18.4218L30.5825 4.26676C27.4994 1.18367 22.5008 1.18368 19.4177 4.26676L5.2627 18.4218H44.7375Z" fill="#693CFF"/>
<ellipse opacity="0.7" cx="24.999" cy="32.8954" rx="10.5263" ry="3.28947" fill="#693CFF"/>
<ellipse cx="24.999" cy="30.2638" rx="10.5263" ry="3.28947" fill="#693CFF"/>
<g clip-path="url(#clip1)">
<path d="M24.9998 23.0271C27.0763 23.0271 28.7592 21.2597 28.7592 19.0797C28.7592 16.8997 27.0763 15.1323 24.9998 15.1323C22.9234 15.1323 21.2404 16.8997 21.2404 19.0797C21.2404 21.2597 22.9234 23.0271 24.9998 23.0271ZM26.4889 24.5073H23.5108C20.7003 24.5073 18.4209 26.9004 18.4209 29.8517C18.4209 30.4419 18.8767 30.9209 19.4389 30.9209H30.5614C31.1236 30.9218 31.5788 30.4438 31.5788 29.8517C31.5788 26.9004 29.2997 24.5073 26.4889 24.5073Z" fill="white"/>
</g>
</g>
<defs>
<clipPath id="clip0">
<rect width="50" height="50" fill="white"/>
</clipPath>
<clipPath id="clip1">
<rect width="13.1579" height="15.7895" fill="white" transform="translate(18.4209 15.1323)"/>
</clipPath>
</defs>
</svg>
