<svg width="50" height="50" viewBox="0 0 50 50" fill="none" xmlns="http://www.w3.org/2000/svg">
<g clip-path="url(#clip0)">
<rect x="-1.78161" y="25.0007" width="37.8749" height="37.8749" rx="8.22368" transform="rotate(-45 -1.78161 25.0007)" fill="#010048" stroke="white" stroke-width="0.657895"/>
<path d="M44.7375 18.4218L30.5825 4.26676C27.4994 1.18367 22.5008 1.18368 19.4177 4.26676L5.2627 18.4218H44.7375Z" fill="#693CFF"/>
<ellipse opacity="0.7" cx="24.999" cy="32.8954" rx="10.5263" ry="3.28947" fill="#693CFF"/>
<ellipse cx="24.999" cy="30.2638" rx="10.5263" ry="3.28947" fill="#693CFF"/>
<g clip-path="url(#clip1)">
<path d="M24.9967 25.4934C26.6491 25.4934 27.9642 24.1772 27.9642 22.5535C27.9642 20.9297 26.6247 19.6135 24.9967 19.6135C23.3443 19.6135 22.0292 20.9297 22.0292 22.5535C22.0033 24.1761 23.3446 25.4934 24.9967 25.4934ZM26.4359 26.398H23.5633C21.3039 26.398 19.4733 28.0857 19.4733 30.1663C19.4733 30.5847 19.8388 30.9211 20.2907 30.9211H29.7085C30.1604 30.9211 30.5259 30.5847 30.5259 30.1663C30.5259 28.0857 28.6953 26.398 26.4359 26.398ZM30.5259 20.9704C31.7975 20.9704 32.8285 19.9578 32.8285 18.7089C32.8285 17.46 31.7981 16.4474 30.5259 16.4474C29.2543 16.4474 28.2233 17.46 28.2233 18.7089C28.2233 19.9578 29.2537 20.9704 30.5259 20.9704ZM21.0822 22.5535C21.0822 22.3994 21.1105 22.253 21.1285 22.1037C20.8146 21.9344 20.4692 21.875 20.1036 21.875H18.3243C16.9243 21.875 15.7891 23.0567 15.7891 24.5125C15.7891 24.8037 16.0161 25.0411 16.2962 25.0411H22.0384C21.4507 24.3683 21.0822 23.5061 21.0822 22.5535ZM19.4733 20.9704C20.7449 20.9704 21.7759 19.9578 21.7759 18.7089C21.7759 17.46 20.7455 16.4474 19.4733 16.4474C18.2016 16.4474 17.1706 17.46 17.1706 18.7089C17.1706 19.9578 18.2016 20.9704 19.4733 20.9704ZM31.6743 21.875H29.8944C29.526 21.875 29.1783 21.9609 28.8623 22.108C28.8795 22.2566 28.9083 22.4008 28.9083 22.5535C28.9083 23.5064 28.5405 24.3686 27.9539 25.0411H33.7018C33.9827 25.0411 34.2101 24.8037 34.2101 24.5125C34.2101 23.0567 33.0761 21.875 31.6743 21.875Z" fill="white"/>
</g>
</g>
<defs>
<clipPath id="clip0">
<rect width="50" height="50" fill="white"/>
</clipPath>
<clipPath id="clip1">
<rect width="18.4211" height="14.4737" fill="white" transform="translate(15.7891 16.4474)"/>
</clipPath>
</defs>
</svg>
